<?xml version="1.0" encoding="utf-8"?>
<?xml-stylesheet type="text/xsl" href="rss1.xsl"?>
<rss version="2.0" xmlns:atom="http://www.w3.org/2005/Atom" xmlns:content="http://purl.org/rss/1.0/modules/content/" xmlns:dc="http://purl.org/dc/elements/1.1/" xmlns:media="http://search.yahoo.com/mrss/">
<channel>
 <title>Getty</title>
 <link>http://www.gettyimg.com/</link>
 <atom:link href="http://www.gettyimg.com/" rel="self" type="application/rss+xml" />

 
                <item>
                <title><![CDATA[【Unreleased/Unofficial (lossy)】M4A - Taylor Swift - I Did Something Bad (Live from the 2018 American Music Awards) | E-AC-3 5.1]]></title>
                <link><![CDATA[https://sharemania.us/threads/taylor-swift-i-did-something-bad-live-from-the-2018-american-music-awards-e-ac-3-5-1.232346/]]></link>
                <description><![CDATA[<article>
<blockquote class="messageText SelectQuoteContainer ugc baseHtml">
<b><img src="https://i.postimg.cc/kGg3PtM0/IMG-5337.jpg" class="bbCodeImage LbImage" alt="[​IMG]" data-url="https://i.postimg.cc/kGg3PtM0/IMG-5337.jpg" style=""> <br>
Taylor Swift - I Did Something Bad (Live from the 2018 American Music Awards)<br>
</b><br>
An <span style="text-decoration: underline">unofficial</span> release.<br>
<br>
<b>Dolby Digital Plus 5.1 @ 1024Kbps</b><br>
There's also a <a href="https://sharemania.us/threads/taylor-swift-i-did-something-bad-live-from-the-2018-american-music-awards.232347/" class="internalLink">Stereo [AAC] Version.</a><br>
<br>
<b>Source:</b><br>
<a href="https://sharemania.us/threads/taylor-swift-i-did-something-bad-american-music-awards-2018-720p-uncensored-version.151341/" class="internalLink">Taylor Swift - I Did Something Bad (American Music Awards 2018) - 720p UNCENSORED Version</a><br>
<br>
<b>MediaInfo:</b><br>
<div class="ToggleTriggerAnchor bbCodeSpoilerContainer">
<button type="button" class="button bbCodeSpoilerButton ToggleTrigger Tooltip JsOnly" data-target="> .SpoilerTarget"><span>Spoiler: <span class="SpoilerTitle">MediaInfo</span></span></button>
<div class="SpoilerTarget bbCodeSpoilerText">General<br>
Complete name : I Did Something Bad (Live from the 2018 American Music Awards).m4a<br>
Format : MPEG-4<br>
Format profile : Base Media / Version 2<br>
Codec ID : mp42 (mp42/isom)<br>
File size : 46.9 MiB<br>
Duration : 6 min 21 s<br>
Overall bit rate mode : Constant<br>
Overall bit rate : 1 032 kb/s<br>
Album : I Did Something Bad (Live from the 2018 American Music Awards) - Single<br>
Album/Performer : Taylor Swift<br>
Part/Position : 1<br>
Part/Total : 1<br>
Track name : I Did Something Bad (Live from the 2018 American Music Awards)<br>
Track name/Position : 1<br>
Track name/Total : 1<br>
Performer : Taylor Swift<br>
Genre : Pop<br>
Recorded date : 2018<br>
Encoded date : 2023-11-17 03:39:04 UTC<br>
Tagged date : 2023-11-17 03:39:04 UTC<br>
Writing application : Lavf60.3.100<br>
Cover : Yes<br>
Lyrics : I never trust a narcissist, but they love me / So I play 'em like a violin / And I make it look—oh—so easy / / 'Cause for every lie I tell them, they tell me three / This is how the world works / Now all he thinks about is me / / I can feel the flames on my skin / Crimson-red paint on my lips / If a man talks shit / Then I owe him nothing / I don't regret it one bit / 'Cause he had it coming / / They say I did something bad / Then why's it feel so good? / They say I did something bad / But why's it feel so good? / Most fun I ever had / And I'd do it over and over and over again if I could / It just felt so good, good / / I never trust a playboy, but they love me / So I fly 'em all around the world / And I let them think they saved me / / They never see it comin', what I do next / This is how the world works / You gotta leave before you get left / / I can feel the flames on my skin / He says, "Don't throw away a good thing." / But if he drops my name / Then I owe him nothin' / And if he spends my change / Then he had it comin' / / They say I did something bad / Then why's it feel so good? / They say I did something bad / But why's it feel so good? / Most fun I ever had / And I'd do it over and over and over again if I could / It just felt so good, good / / It just felt so good / / They're burning all the witches, even if you aren't one / They got their pitchforks and proof, their receipts and reasons / / They're burning all the witches, even if you aren't one / So light me up (light me up), light me up (light me up) / Light me up, go ahead and light me up (light me up) / / Light me up (light me up), light me up (light me up) / Light me up (light me up), light me up / / They say I did something bad (oh) / Then why's it feel so good? (so good) / They say I did something bad / But why's it feel so good? / Most fun I ever had (most fun I ever had) / And I'd do it over and over and over again if I could / It just felt so good (good), good / / Oh, you say I did something bad / (You say I did something bad?) / Why's it feel so good, good? / So bad, why's it feel so good? / Why's it feel, why's it feel so good? (bad) / It just felt so good, good<br>
<br>
Audio<br>
ID : 1<br>
Format : E-AC-3<br>
Format/Info : Enhanced AC-3<br>
Commercial name : Dolby Digital Plus<br>
Format settings : Dolby Surround EX<br>
Codec ID : ec-3<br>
Duration : 6 min 21 s<br>
Bit rate mode : Constant<br>
Bit rate : 1 024 kb/s<br>
Channel(s) : 6 channels<br>
Channel layout : L R C LFE Ls Rs<br>
Sampling rate : 48.0 kHz<br>
Frame rate : 31.250 FPS (1536 SPF)<br>
Compression mode : Lossy<br>
Stream size : 46.5 MiB (99%)<br>
Service kind : Complete Main<br>
Default : Yes<br>
Alternate group : 2<br>
Encoded date : 2023-11-17 03:39:04 UTC<br>
Tagged date : 2023-11-17 03:39:04 UTC</div>
</div><br>
<b>Link:</b><br>
<div class="bbCodeBlock bbCodeVfcHH HiddenContent">
<div class="attribution type">Hidden Content:</div>
<blockquote>You must either reply or click 'Like' to see the hidden information contained here.</blockquote>
</div><b><br>
Enjoy <img src="styles/default/xenforo/smilies/big_smile-48.png" class="mceSmilie" alt=":)" title="Smile    :)"></b>
<div class="messageTextEndMarker">&nbsp;</div>
</blockquote>
</article>]]></description>
                <author><![CDATA[yonatand1230]]></author>
                </item>

                
                <item>
                <title><![CDATA[【Unreleased/Unofficial (lossy)】iTunes Plus - Taylor Swift - I Did Something Bad (Live from the 2018 American Music Awards) | AAC 2.0]]></title>
                <link><![CDATA[https://sharemania.us/threads/taylor-swift-i-did-something-bad-live-from-the-2018-american-music-awards-aac-2-0.232347/]]></link>
                <description><![CDATA[<article>
<blockquote class="messageText SelectQuoteContainer ugc baseHtml">
<img src="https://i.postimg.cc/kGg3PtM0/IMG-5337.jpg" class="bbCodeImage LbImage" alt="[​IMG]" data-url="https://i.postimg.cc/kGg3PtM0/IMG-5337.jpg" style=""> <br>
<b>Taylor Swift - I Did Something Bad (Live from the 2018 American Music Awards)</b><br>
<br>
An <span style="text-decoration: underline">unofficial</span> release.<br>
<br>
<b>AAC 2.0 @ 320Kbps</b><br>
<a href="https://sharemania.us/threads/taylor-swift-i-did-something-bad-live-from-the-2018-american-music-awards.232346/" class="internalLink">There's also a Dolby Digital Plus 5.1 version.</a> <br>
<br>
<b>Source:</b><br>
<a href="https://sharemania.us/threads/taylor-swift-i-did-something-bad-american-music-awards-2018-720p-uncensored-version.151341/" class="internalLink">Taylor Swift - I Did Something Bad (American Music Awards 2018) - 720p UNCENSORED Version</a><br>
<br>
<b>MediaInfo:</b><br>
<div class="ToggleTriggerAnchor bbCodeSpoilerContainer">
<button type="button" class="button bbCodeSpoilerButton ToggleTrigger Tooltip JsOnly" data-target="> .SpoilerTarget"><span>Spoiler: <span class="SpoilerTitle">MediaInfo</span></span></button>
<div class="SpoilerTarget bbCodeSpoilerText">General<br>
Complete name : I Did Something Bad (Live from the 2018 American Music Awards)_aac.m4a<br>
Format : MPEG-4<br>
Format profile : Apple audio with iTunes info<br>
Codec ID : M4A (M4A /isom/iso2)<br>
File size : 14.8 MiB<br>
Duration : 6 min 21 s<br>
Overall bit rate mode : Constant<br>
Overall bit rate : 326 kb/s<br>
Album : I Did Something Bad (Live from the 2018 American Music Awards) - Single<br>
Album/Performer : Taylor Swift<br>
Part/Position : 1<br>
Part/Total : 1<br>
Track name : I Did Something Bad (Live from the 2018 American Music Awards)<br>
Track name/Position : 1<br>
Track name/Total : 1<br>
Performer : Taylor Swift<br>
Genre : Pop<br>
Recorded date : 2018<br>
Writing application : Lavf60.3.100<br>
Cover : Yes<br>
Lyrics : I never trust a narcissist, but they love me / So I play 'em like a violin / And I make it look—oh—so easy / / 'Cause for every lie I tell them, they tell me three / This is how the world works / Now all he thinks about is me / / I can feel the flames on my skin / Crimson-red paint on my lips / If a man talks shit / Then I owe him nothing / I don't regret it one bit / 'Cause he had it coming / / They say I did something bad / Then why's it feel so good? / They say I did something bad / But why's it feel so good? / Most fun I ever had / And I'd do it over and over and over again if I could / It just felt so good, good / / I never trust a playboy, but they love me / So I fly 'em all around the world / And I let them think they saved me / / They never see it comin', what I do next / This is how the world works / You gotta leave before you get left / / I can feel the flames on my skin / He says, "Don't throw away a good thing." / But if he drops my name / Then I owe him nothin' / And if he spends my change / Then he had it comin' / / They say I did something bad / Then why's it feel so good? / They say I did something bad / But why's it feel so good? / Most fun I ever had / And I'd do it over and over and over again if I could / It just felt so good, good / / It just felt so good / / They're burning all the witches, even if you aren't one / They got their pitchforks and proof, their receipts and reasons / / They're burning all the witches, even if you aren't one / So light me up (light me up), light me up (light me up) / Light me up, go ahead and light me up (light me up) / / Light me up (light me up), light me up (light me up) / Light me up (light me up), light me up / / They say I did something bad (oh) / Then why's it feel so good? (so good) / They say I did something bad / But why's it feel so good? / Most fun I ever had (most fun I ever had) / And I'd do it over and over and over again if I could / It just felt so good (good), good / / Oh, you say I did something bad / (You say I did something bad?) / Why's it feel so good, good? / So bad, why's it feel so good? / Why's it feel, why's it feel so good? (bad) / It just felt so good, good<br>
<br>
Audio<br>
ID : 2<br>
Format : AAC LC<br>
Format/Info : Advanced Audio Codec Low Complexity<br>
Codec ID : mp4a-40-2<br>
Duration : 6 min 21 s<br>
Source duration : 6 min 21 s<br>
Bit rate mode : Constant<br>
Bit rate : 319 kb/s<br>
Channel(s) : 2 channels<br>
Channel layout : L R<br>
Sampling rate : 48.0 kHz<br>
Frame rate : 46.875 FPS (1024 SPF)<br>
Compression mode : Lossy<br>
Stream size : 14.5 MiB (98%)<br>
Source stream size : 14.5 MiB (98%)<br>
Default : Yes<br>
Alternate group : 1</div>
</div><br>
<b>Link:</b><br>
<div class="bbCodeBlock bbCodeVfcHH HiddenContent">
<div class="attribution type">Hidden Content:</div>
<blockquote>You must either reply or click 'Like' to see the hidden information contained here.</blockquote>
</div><b><br>
Enjoy <img src="styles/default/xenforo/smilies/big_smile-48.png" class="mceSmilie" alt=":)" title="Smile    :)"></b>
<div class="messageTextEndMarker">&nbsp;</div>
</blockquote>
</article>]]></description>
                <author><![CDATA[yonatand1230]]></author>
                </item>

                </channel></rss>